<svg xmlns="http://www.w3.org/2000/svg" viewBox="0 0 80 80" fill="none">
  <rect width="80" height="80" rx="18" fill="#00A376"/>
  <path d="M52.5 32.5c0-2.4-0.8-4.4-2.5-6-1.7-1.6-4.2-2.8-7.5-3.5l-5.5-1.2c-2-.5-3.4-1.1-4.2-1.8-.8-.7-1.3-1.7-1.3-2.8 0-1.4.6-2.5 1.8-3.3 1.2-.8 2.8-1.2 4.8-1.2 2.1 0 3.7.5 4.9 1.4 1.2 1 1.8 2.2 1.8 3.8h7.2c0-3.2-1.3-5.8-3.8-7.8C45.7 8.2 42.6 7.2 39 7.2c-3.5 0-6.4.9-8.7 2.8-2.3 1.8-3.4 4.2-3.4 7 0 2.4.9 4.4 2.6 6 1.7 1.5 4.1 2.7 7.2 3.4l5.6 1.2c2.2.5 3.7 1.1 4.6 1.9.9.8 1.3 1.8 1.3 3 0 1.5-.7 2.7-2 3.6-1.3.9-3 1.3-5.2 1.3-2.3 0-4.1-.5-5.4-1.5-1.3-1-2-2.4-2-4.2h-7.2c0 3.4 1.3 6.2 4 8.2 2.7 2 6 3 10 3 3.7 0 6.7-1 9-2.9 2.3-2 3.4-4.4 3.4-7.3z" fill="white" transform="translate(0 16) scale(0.9)"/>
  <circle cx="58" cy="14" r="4" fill="rgba(255,255,255,0.3)"/>
  <path d="M56 14 Q58 10 62 12 Q60 16 56 14Z" fill="rgba(255,255,255,0.5)"/>
</svg>
